/* XPM */
static const char *__floor[] = {
/* columns rows colors chars-per-pixel */
"32 32 29 1 ",
"  c #000000",
". c #000100",
"X c #010101",
"o c #020201",
"O c #020202",
"+ c #020302",
"@ c #030302",
"# c #030303",
"$ c #040403",
"% c #040404",
"& c #050504",
"* c #050505",
"= c #060605",
"- c #060606",
"; c #070706",
": c #070707",
"> c #070807",
", c #080807",
"< c #080808",
"1 c #090908",
"2 c #090909",
"3 c #0A0A09",
"4 c #0A0A0A",
"5 c #0C0C0B",
"6 c #0D0D0D",
"7 c #0E0E0E",
"8 c #111111",
"9 c #121211",
"0 c #151514",
/* pixels */
"                                ",
"                                ",
"                                ",
"                                ",
"                                ",
"                                ",
"                                ",
"                                ",
"                                ",
"                                ",
"                 :              ",
"                 ,              ",
"        1    $:  1  181         ",
"      80:  7  :  :   :          ",
"      77:: :                    ",
"    :::                         ",
"                                ",
"                                ",
"                         :      ",
"          ::            :5::    ",
"          :1            151     ",
"                                ",
"             :1                 ",
"                                ",
"                                ",
"                                ",
"                                ",
"                                ",
"                                ",
"                                ",
"                                ",
"                                "
};
