/* XPM */
static const char *__wall[] = {
/* columns rows colors chars-per-pixel */
"32 32 21 1 ",
"  c black",
". c #010101",
"X c #070707",
"o c #0B0B0B",
"O c #0050e6",
"+ c #2d2b30",
"@ c #191919",
"# c #1A1A1A",
"$ c #1B1B1B",
"% c #1C1C1C",
"& c #1D1D1D",
"* c #2d2b30",
"= c #272727",
"- c #2F2F2F",
"; c #202227",
": c #313131",
"> c #323232",
", c #333333",
"< c #383838",
"1 c #0059ff",
"2 c #414141",
/* pixels */
"                                ",
"                                ",
"                                ",
"    XoOOOOOOOOOOOOOOOOOOOOoX    ",
"   X=11111<<1111<1<11111111=X   ",
"   o12,-,,,--,,,,,---,,,,,20o   ",
"   O1,*****+******+*******,;;   ",
"   O1-*++++++++++++++++++*-;;   ",
"   O<-*++++++++++++++++++*-;;   ",
"   O<-*+++++++++**+++++++*,;;   ",
"   O<,*++++++++++*+++++++*,;;   ",
"   O<,*++++++++++++++++++*,;;   ",
"   O1-*++++++++++++++++++*,;;   ",
"   O1-*++++++++++++++++++*-;;   ",
"   O1-*++++++**+++++*+++++-;;   ",
"   O1-*++++++***++++++++++-;;   ",
"   O1-*++**++++++++++++++*,;;   ",
"   O1-*++++++++**++++++++*,;;   ",
"   O1,*+++++++++*+++++*++*,;;   ",
"   O1,*+++++++++++++++++++-;;   ",
"   O1,*++++++++++*+++++++*,;;   ",
"   O1,*++++++*++++*++++++*,;;   ",
"   O<-+++++++*+++++++++++*-;;   ",
"   O<-+++++++++++++++++++*-;;   ",
"   O1-*+++++++++++++++++++-;;   ",
"   O1,******************+*,     ",
"   o12,-,,,----,,,,--,,,-,20o   ",
"   X=;;;;;;;;;;;;;;;;;=X   oo   ",
"    X;;;;;;;;;;;;;;;;;X    oo   ",
"                                ",
"                                ",
"                                "
};
