/* XPM */
static const char *C_item[] = {
/* columns rows colors chars-per-pixel */
"32 32 156 2 ",
"   c #000000",
".  c #010000",
"X  c #010101",
"o  c #030000",
"O  c #020202",
"+  c #080002",
"@  c #090103",
"#  c #0A0103",
"$  c #0B0104",
"%  c #0D0104",
"&  c #0B0B0B",
"*  c #0D0D0D",
"=  c #130105",
"-  c #100205",
";  c #100206",
":  c #140106",
">  c #140207",
",  c #121313",
"<  c #191919",
"1  c #1A1A1A",
"2  c #1A1B1B",
"3  c #21030B",
"4  c #28040D",
"5  c #2E0610",
"6  c #2E0611",
"7  c #330611",
"8  c #360612",
"9  c #3E0715",
"0  c #3F0716",
"q  c #262626",
"w  c #2A2A2A",
"e  c #2B2B2B",
"r  c #3B3B3B",
"t  c #3C3C3C",
"y  c #410817",
"u  c #420817",
"i  c #430817",
"p  c #4A0A1B",
"a  c #4B0A1B",
"s  c #4D0A1B",
"d  c #570A1E",
"f  c #550C1F",
"g  c #580A1E",
"h  c #590D20",
"j  c #5A0D21",
"k  c #610E23",
"l  c #690C24",
"z  c #710E28",
"x  c #710F28",
"c  c #730E28",
"v  c #730F29",
"b  c #7B0E2A",
"n  c #7B0F2A",
"m  c #711029",
"M  c #79102B",
"N  c #7F112D",
"B  c #484848",
"V  c #676767",
"C  c #6C6C6C",
"Z  c #6D6D6D",
"A  c #6E6F6F",
"S  c #727272",
"D  c #757575",
"F  c #7B7B7B",
"G  c #810F2C",
"H  c #80102C",
"J  c #82102D",
"K  c #83102E",
"L  c #84102E",
"P  c #85112F",
"I  c #87112F",
"U  c #84122F",
"Y  c #86122F",
"T  c #88112F",
"R  c #841230",
"E  c #8A1231",
"W  c #8B1231",
"Q  c #8C1231",
"!  c #8D1231",
"~  c #8C1232",
"^  c #8E1232",
"/  c #8E1333",
"(  c #901232",
")  c #911333",
"_  c #921333",
"`  c #931333",
"'  c #931334",
"]  c #941334",
"[  c #951335",
"{  c #961335",
"}  c #971335",
"|  c #931435",
" . c #941435",
".. c #961435",
"X. c #971436",
"o. c #991436",
"O. c #9A1436",
"+. c #9B1537",
"@. c #9E1538",
"#. c #A01539",
"$. c #A1163A",
"%. c #A3163A",
"&. c #A3173B",
"*. c #A4163B",
"=. c #A6163B",
"-. c #A7163B",
";. c #A7173B",
":. c #A7173C",
">. c #A8173C",
",. c #A9173D",
"<. c #AA173D",
"1. c #AB183D",
"2. c #AC183E",
"3. c #AD183E",
"4. c #AE183F",
"5. c #AF183F",
"6. c #B0183F",
"7. c #B01840",
"8. c #B11840",
"9. c #B11940",
"0. c #B21940",
"q. c #B31940",
"w. c #B41941",
"e. c #B51941",
"r. c #B71A42",
"t. c #B81A43",
"y. c #B91A43",
"u. c #BA1A43",
"i. c #BB1A43",
"p. c #BB1A44",
"a. c #BB1B44",
"s. c #BD1B45",
"d. c #BE1B45",
"f. c #BF1B45",
"g. c #C01B46",
"h. c #C11C46",
"j. c #C21C46",
"k. c #C21C47",
"l. c #C31C47",
"z. c #C41C47",
"x. c #C51C48",
"c. c #C61D48",
"v. c #C71D49",
"b. c #C81D49",
"n. c #C91D49",
"m. c #C91D4A",
"M. c #CA1D4A",
"N. c #CB1D4A",
"B. c #CC1E4A",
"V. c #CC1E4B",
"C. c #CD1E4B",
"Z. c #8B8B8B",
"A. c #8C8C8C",
"S. c #909090",
"D. c #929292",
"F. c None",
/* pixels */
"F.F.F.F.F.F.F.F.F.F.F.F.F.F.F.F.F.F.F.F.F.F.F.F.F.F.F.F.F.F.F.F.",
"F.F.F.F.F.F.F.F.F.F.F.F.F.H g y y d H F.F.F.F.F.F.F.F.F.F.F.F.F.",
"F.F.F.F.F.F.F.F.F.F.F.H c 4 o o o o 4 z N F.F.F.F.F.F.F.F.F.F.F.",
"F.F.F.F.F.F.F.F.F.F.O.P = 2 A S S A , = P F.F.F.F.F.F.F.F.F.F.F.",
"F.F.F.F.F.F.F.F.F.F.2.y o r D.B B A.e o y 3.F.F.F.F.F.F.F.F.F.F.",
"F.F.F.F.F.F.F.F.F.' &.= o t A o o V e o > &.( F.F.F.F.F.F.F.F.F.",
"F.F.F.F.F.F.F.F.F.3.' + o r F 2 2 D e o $ X.3.F.F.F.F.F.F.F.F.F.",
"F.F.F.F.F.F.F.F.F.u.E + o q D.Z.Z.A.2 o + E u.F.F.F.F.F.F.F.F.F.",
"F.F.F.F.F.F.F.F.F.u.~ + o o & * * & o o + ~ u.F.F.F.F.F.F.F.F.F.",
"F.F.F.F.F.F.F.F.F.8.&.= o o o o o o o o % &.3.F.F.F.F.F.F.F.F.F.",
"F.F.F.F.F.F.F.F.F.@.u.7 o o o o o o o o 8 u.@.F.F.F.F.F.F.F.F.F.",
"F.F.F.F.F.F.F.F.F.F.p.N 3 o o o o o o 3 N u.F.F.F.F.F.F.F.F.F.F.",
"F.F.F.F.F.F.F.F.F.F.[ 8.b 9 % o o % 9 b 8.[ F.F.F.F.F.F.F.F.F.F.",
"F.F.F.F.F.F.F.F.F.F.F.( @.:.| 5 5 X.;.@.( F.F.F.F.F.F.F.F.F.F.F.",
"F.F.F.F.F.F.F.F.F.F.P <.w.l.u.z z u.z.w.<.P F.F.F.F.F.F.F.F.F.F.",
"F.F.F.F.F.F.F.F.F.F.p.u.v.v.w.P T w.M.v.u.p.F.F.F.F.F.F.F.F.F.F.",
"F.F.F.F.F.F.F.F.F.;.g.[ g.M.M.w.w.M.M.g.[ g.;.F.F.F.F.F.F.F.F.F.",
"F.F.F.F.F.F.F.F.F.u.u.[ v.M.M.8.8.M.M.M.[ u.w.F.F.F.F.F.F.F.F.F.",
"F.F.F.F.F.F.F.F.F.<.&.;.M.M.M.8.8.M.M.M.;.&.:.F.F.F.F.F.F.F.F.F.",
"F.F.F.F.F.F.F.F.P 8.~ 3.M.M.M.8.8.M.M.M.6.~ 8.F.F.F.F.F.F.F.F.F.",
"F.F.F.F.F.F.F.F.( l.m a j f f s s f f j a m l.F.F.F.F.F.F.F.F.F.",
"F.F.F.F.F.F.F.F.F.d.P j k k k f f k k k j R d.F.F.F.F.F.F.F.F.F.",
"F.F.F.F.F.F.F.F.F.&.O.l.C.C.C.w.w.C.C.C.l.O.&.F.F.F.F.F.F.F.F.F.",
"F.F.F.F.F.F.F.F.F.F.M l.M.M.M.d.d.M.M.M.g.z F.F.F.F.F.F.F.F.F.F.",
"F.F.F.F.F.F.F.F.F.F.~ d.M.M.M.l.l.M.M.M.d.F.F.F.F.F.F.F.F.F.F.F.",
"F.F.F.F.F.F.F.F.F.F.G d.M.M.l.( ' l.M.M.d.F.F.F.F.F.F.F.F.F.F.F.",
"F.F.F.F.F.F.F.F.F.F.l 3.w.w.8.F.F.6.w.w.3.F.F.F.F.F.F.F.F.F.F.F.",
"F.F.F.F.F.F.F.F.F.F.F.X.&.&.( F.F.( &.&.X.F.F.F.F.F.F.F.F.F.F.F.",
"F.F.F.F.F.F.F.F.F.F.F.u.M.M.8.F.F.8.M.M.u.F.F.F.F.F.F.F.F.F.F.F.",
"F.F.F.F.F.F.F.F.F.F.F.<.v.v.3.F.F.<.v.v.<.F.F.F.F.F.F.F.F.F.F.F.",
"F.F.F.F.F.F.F.F.F.F.F.F.8.w.F.F.F.F.w.8.F.F.F.F.F.F.F.F.F.F.F.F.",
"F.F.F.F.F.F.F.F.F.F.F.F.F.F.F.F.F.F.F.F.F.F.F.F.F.F.F.F.F.F.F.F."
};
