/* XPM */
static const char *E_exit_open[] = {
/* columns rows colors chars-per-pixel */
"32 32 161 2 ",
"   c black",
".  c #010101",
"X  c #030302",
"o  c #030403",
"O  c #040404",
"+  c #050505",
"@  c #060706",
"#  c #070706",
"$  c #070707",
"%  c #080807",
"&  c #090908",
"*  c #0A0A09",
"=  c #0D0D0C",
"-  c #0D0E0C",
";  c #0E0E0C",
":  c #0E0E0D",
">  c #0F0F0D",
",  c #0F100E",
"<  c #10100E",
"1  c #11120F",
"2  c #121210",
"3  c #121310",
"4  c #131311",
"5  c #131411",
"6  c #151512",
"7  c #161613",
"8  c #161714",
"9  c #171714",
"0  c #181815",
"q  c #181816",
"w  c #1A1A17",
"e  c #1A1B18",
"r  c #1C1D1A",
"t  c #1D1D1B",
"y  c #21221E",
"u  c #252621",
"i  c #252622",
"p  c #262623",
"a  c #272823",
"s  c #282823",
"d  c #282924",
"f  c #292925",
"g  c #30312B",
"h  c #31322C",
"j  c #32332D",
"k  c #34352F",
"l  c #343530",
"z  c #363730",
"x  c #363631",
"c  c #353633",
"v  c #383832",
"b  c #393933",
"n  c #3A3B34",
"m  c #3B3D36",
"M  c #3C3D37",
"N  c #3D3D37",
"B  c #3E3F38",
"V  c #404039",
"C  c #404139",
"Z  c #41423A",
"A  c #41423B",
"S  c #43443C",
"D  c #4B4B42",
"F  c #4B4C43",
"G  c #494A44",
"H  c #4A4B45",
"J  c #4A4B46",
"K  c #4B4B46",
"L  c #4B4B47",
"P  c #4B4C47",
"I  c #4C4D44",
"U  c #4D4D44",
"Y  c #4D4E49",
"T  c #505148",
"R  c #515248",
"E  c #515249",
"W  c #525349",
"Q  c #53534A",
"!  c #55564B",
"~  c #55564C",
"^  c #56574C",
"/  c #56574D",
"(  c #57584E",
")  c #5E5F53",
"_  c #5D5E55",
"`  c #616257",
"'  c #626357",
"]  c #646559",
"[  c #65665A",
"{  c #67695C",
"}  c #696A5F",
"|  c #6A6C5F",
" . c #6F7063",
".. c #707163",
"X. c #707264",
"o. c #727365",
"O. c #737467",
"+. c #757768",
"@. c #767769",
"#. c #77796A",
"$. c #787A6B",
"%. c #808272",
"&. c #828473",
"*. c #838575",
"=. c #848675",
"-. c #888A79",
";. c #898A7A",
":. c #8B8C7A",
">. c #8A8C7B",
",. c #8B8C7B",
"<. c #8C8D7D",
"1. c #8C8E7D",
"2. c #8D8F7D",
"3. c #92947F",
"4. c #909280",
"5. c #919381",
"6. c #929381",
"7. c #929481",
"8. c #919482",
"9. c #949684",
"0. c #959784",
"q. c #959785",
"w. c #979886",
"e. c #979986",
"r. c #979987",
"t. c #989986",
"y. c #989A86",
"u. c #999A86",
"i. c #999A87",
"p. c #989B87",
"a. c #999B87",
"s. c #999B88",
"d. c #9A9B88",
"f. c #9A9C89",
"g. c #9A9D89",
"h. c #9C9E89",
"j. c #9C9F8A",
"k. c #9FA18C",
"l. c #9FA18D",
"z. c #9FA18E",
"x. c #A0A28E",
"c. c #A1A28E",
"v. c #A0A28F",
"b. c #A1A38F",
"n. c #A2A48F",
"m. c #A1A390",
"M. c #A2A490",
"N. c #A3A490",
"B. c #A3A691",
"V. c #A6A893",
"C. c #A6A993",
"Z. c #AAAC95",
"A. c #ACAE98",
"S. c #ACAF98",
"D. c #AEB09A",
"F. c #AFB29B",
"G. c #B2B49D",
"H. c #B2B49E",
"J. c #B3B59E",
"K. c #B4B69D",
"L. c #B7B9A2",
/* pixels */
"                                                                ",
"                                                                ",
"                            4 v d %                             ",
"                          z s.x.B.#.,                           ",
"                        4 s.| q u 6.[                           ",
"                        z x.9 Z u E 0.-                         ",
"                        s x.N x.$.{ :.*                         ",
"                        # o.D.G.L.V.m                           ",
"                          n A.6.a.3.4                           ",
"                        * *...- q a.!                           ",
"                        F l.t     U l.t                         ",
"                      6 f.^       * =.o.o                       ",
"                      ` 7.1         h B.g                       ",
"                    d B.D 1 5 5 5 4 9 %.&.*                     ",
"                  #  .G.a.a.s.s.s.s.a.n.F.N                     ",
"                  - P L L L L L L L L L Y z                     ",
"                  v V.e.0.0.0.0.0.0.0.0.l.<.-                   ",
"                  Z l.u 6 6 6 6 6 6 6 4 ( a.1                   ",
"                  V f.1                 F a.,                   ",
"                  Z j.1                 F a.,                   ",
"                  Z j.1                 F a.,                   ",
"                  Z j.1                 F a.,                   ",
"                  Z j.4     4 z a $     F a.,                   ",
"                  Z j.4   k e.x.B.@.-   F a.,                   ",
"                  Z j.q q e.O.y h 7._ # E a.,                   ",
"                  B G.6.0.K.:.<.-.l.Z.:.m.f.,                   ",
"                  e E ^ ` A.} E E 6.e.^ ^ S #                   ",
"                        # @.-.U ) l.Z                           ",
"                          1 [ 0.<.S #                           ",
"                              - *                               ",
"                                                                ",
"                                                                "
};
