/* XPM */
static const char *E_exit_closed[] = {
/* columns rows colors chars-per-pixel */
"32 32 105 2 ",
"   c black",
".  c #010100",
"X  c #010101",
"o  c #020202",
"O  c #030302",
"+  c #030303",
"@  c #040404",
"#  c #040504",
"$  c #050504",
"%  c #050505",
"&  c #050605",
"*  c #060605",
"=  c #060606",
"-  c #070706",
";  c #080807",
":  c #090908",
">  c #090A09",
",  c #0B0C0A",
"<  c #0C0D0B",
"1  c #0D0D0B",
"2  c #0D0D0C",
"3  c #0D0E0C",
"4  c #0E0E0C",
"5  c #10110E",
"6  c #11110F",
"7  c #12120F",
"8  c #111210",
"9  c #121210",
"0  c #121310",
"q  c #131310",
"w  c #131311",
"e  c #141512",
"r  c #151512",
"t  c #161613",
"y  c #161713",
"u  c #161714",
"i  c #171714",
"p  c #171715",
"a  c #181915",
"s  c #181816",
"d  c #181916",
"f  c #191916",
"g  c #191A17",
"h  c #1A1A17",
"j  c #1A1B17",
"k  c #1B1B18",
"l  c #1C1C18",
"z  c #1C1D19",
"x  c #1D1D19",
"c  c #1D1D1A",
"v  c #1D1E1A",
"b  c #1E1E1A",
"n  c #1E1F1B",
"m  c #21221D",
"M  c #22221E",
"N  c #23231E",
"B  c #23241F",
"V  c #242520",
"C  c #252520",
"Z  c #252621",
"A  c #272722",
"S  c #272822",
"D  c #282923",
"F  c #292924",
"G  c #2A2A25",
"H  c #2A2B25",
"J  c #585858",
"K  c #585858",
"L  c #585858",
"P  c #585858",
"I  c #585858",
"U  c #585858",
"Y  c #2f3750",
"T  c #585858",
"R  c #585858",
"E  c #585858",
"W  c #585858",
"Q  c #585858",
"!  c #585858",
"~  c #585858",
"^  c #585858",
"/  c #585858",
"(  c #585858",
")  c #585858",
"_  c #585858",
"`  c #585858",
"'  c #585858",
"]  c #585858",
"[  c #585858",
"{  c #585858",
"}  c #585858",
"|  c #585858",
" . c #585858",
".. c #585858",
"X. c #585858",
"o. c #585858",
"O. c #585858",
"+. c #585858",
"@. c #585858",
"#. c #585858",
"$. c #585858",
"%. c #585858",
"&. c #585858",
"*. c #585858",
"=. c #585858",
/* pixels */
"                                                                ",
"                                                                ",
"                            = q 3                               ",
"                          q { ....F =                           ",
"                        = ] Z ; 1 ~ M                           ",
"                        q ..; u 1 n ] =                         ",
"                        3 ..r ..J Z R                           ",
"                          F %.*.=.+.r                           ",
"                          r %.~ ] ~ =                           ",
"                          I S = > ] n                           ",
"                        j ..>     j ..>                         ",
"                      = } n         I S                         ",
"                      M ] =         5 ..5                       ",
"                    3 ..j = = = = = ; L L                       ",
"                    Z *.] ] ] ] ] ] ] ..%.r                     ",
"                  = j j j j j j j j j j j 5                     ",
"                  q +.{ ] ] ] ] ] ] ] ] ..R =                   ",
"                  r ..3 = ; ; ; ; ; ; = n ] =                   ",
"                  r } =                 j ] =                   ",
"                  r ..=                 j ] =                   ",
"                  r } =                 j ] =                   ",
"                  r } =                 j ] =                   ",
"                  r } =     = q 3       j ] =                   ",
"                  r } =   q ] ....F =   j ] =                   ",
"                  r } > ; ] D > 5 ] M   n ] =                   ",
"                  r &.! ] *.R R R ..%.R ..} =                   ",
"                  > n n M %.Z n n ] ] n n p                     ",
"                          F R k M ..u                           ",
"                          = B ] R u                             ",
"                              =                                 ",
"                                                                ",
"                                                                "
};
