/* XPM */
static const char *P_hero[] = {
/* columns rows colors chars-per-pixel */
"32 32 175 2 ",
"   c #050101",
".  c #0C0403",
"X  c #110502",
"o  c #170A06",
"O  c #190C09",
"+  c #1C100A",
"@  c #1B1914",
"#  c #23130D",
"$  c #29130D",
"%  c #2D1811",
"&  c #241712",
"*  c #3A1F12",
"=  c #13261A",
"-  c #3C231A",
";  c #36271E",
":  c #232821",
">  c #213C31",
",  c #4B2D1C",
"<  c #442619",
"1  c #783F1F",
"2  c #432C24",
"3  c #41302C",
"4  c #4C3129",
"5  c #473024",
"6  c #55392C",
"7  c #463731",
"8  c #583B33",
"9  c #553B36",
"0  c #643E29",
"q  c #7C3F20",
"w  c #19483B",
"e  c #554139",
"r  c #5D4338",
"t  c #6D4433",
"y  c #6C483A",
"u  c #7D5138",
"i  c #74472B",
"p  c #1C5547",
"a  c #0C5647",
"s  c #2E5A4C",
"d  c #225F51",
"f  c #126D5C",
"g  c #2E6D5E",
"h  c #037664",
"j  c #257E6B",
"k  c #4B4C41",
"l  c #405246",
"z  c #5B5742",
"x  c #634A43",
"c  c #70554B",
"v  c #73584D",
"b  c #7B5C55",
"n  c #665356",
"m  c #566E5D",
"M  c #70675C",
"N  c #717154",
"B  c #696657",
"V  c #7B7267",
"C  c #884927",
"Z  c #96552E",
"A  c #8B4E37",
"S  c #8B5433",
"D  c #9D5A33",
"F  c #995834",
"G  c #AD673C",
"H  c #B26C3E",
"J  c #885B41",
"K  c #8D6344",
"L  c #9D6343",
"P  c #95624A",
"I  c #9C6D59",
"U  c #927356",
"Y  c #A56645",
"T  c #B47248",
"R  c #BD7B4B",
"E  c #B97447",
"W  c #AB6C53",
"Q  c #A9765A",
"!  c #BC7955",
"~  c #BA7A57",
"^  c #907161",
"/  c #A17B69",
"(  c #C27E4F",
")  c #C77F51",
"_  c #138774",
"`  c #37826F",
"'  c #288D7B",
"]  c #388F7E",
"[  c #2C907E",
"{  c #458F7D",
"}  c #5D8877",
"|  c #66806F",
" . c #748277",
".. c #BB835E",
"X. c #8D8578",
"o. c #978875",
"O. c #B88A69",
"+. c #BA926C",
"@. c #BC917A",
"#. c #B58975",
"$. c #C7875B",
"%. c #C38C6B",
"&. c #CE8E6A",
"*. c #C48465",
"=. c #D38E62",
"-. c #D2926C",
";. c #D69365",
":. c #C68A71",
">. c #CA8D72",
",. c #C89475",
"<. c #D79973",
"1. c #DA9A73",
"2. c #D29B7B",
"3. c #D69A77",
"4. c #DFA07C",
"5. c #149D86",
"6. c #1B9983",
"7. c #1C9781",
"8. c #2B9683",
"9. c #239B86",
"0. c #269884",
"q. c #359E89",
"w. c #1FA38E",
"e. c #16A18B",
"r. c #2DA38E",
"t. c #34A28D",
"y. c #33AA94",
"u. c #39AD98",
"i. c #37B19C",
"p. c #28A893",
"a. c #439E8B",
"s. c #46A28E",
"d. c #40AC98",
"f. c #51AE98",
"g. c #44B39E",
"h. c #7CAA8F",
"j. c #62AC98",
"k. c #65B19D",
"l. c #4AB9A5",
"z. c #54B7A2",
"x. c #56BAA9",
"c. c #67B7A2",
"v. c #7FC2AE",
"b. c #A89A89",
"n. c #9CAB9D",
"m. c #BFAEA1",
"M. c #A0BDA4",
"N. c #DCA889",
"B. c #DAA991",
"V. c #DDB096",
"C. c #E2AB8B",
"Z. c #E9B38C",
"A. c #E4AF94",
"S. c #E8B597",
"D. c #F2BB98",
"F. c #D2BCAC",
"G. c #E7BBA6",
"H. c #8DC0AA",
"J. c #94C7B5",
"K. c #A1C9B6",
"L. c #C7CDBF",
"P. c #DBCABD",
"I. c #F4C6A9",
"U. c #F5CFB4",
"Y. c #D5CFC1",
"T. c #C6D5C5",
"R. c #E9DACE",
"E. c #E4D4C6",
"W. c #EBDDD2",
"Q. c #DBE1CF",
"!. c #EEE2D7",
"~. c #EEE3D8",
"^. c #E6E6D5",
"/. c #F9F0E1",
"(. c None",
/* pixels */
"(.(.(.(.(.(.(.(.(.(.(.(.(.(.(.(.(.(.(.(.(.(.(.(.(.(.(.(.(.(.(.(.",
"(.(.(.(.(.(.(.(.(.(.(.(.(.(.(.(.(.(.(.(.(.(.(.(.(.(.(.(.(.(.(.(.",
"(.(.(.(.(.(.(.(.(.(.(.(.(.(.(.(.(.(.(.(.(.(.(.(.(.(.(.(.(.(.(.(.",
"(.(.(.(.(.(.(.(.(.(.(.(.(.(.(.(.(.(.(.(.(.(.(.(.(.(.(.(.(.(.(.(.",
"(.(.(.(.(.(.(.(.(.(.(.(.(.(.(.(.(.(.(.(.(.(.(.(.(.(.(.(.(.(.(.(.",
"(.(.(.(.(.(.(.(.(.(.(.(.(.x @ & ; 3 n (.(.(.(.(.(.(.(.(.(.(.(.(.",
"(.(.(.(.(.(.(.(.(.(.(.(.b x , K Q ^ e 7 (.(.(.(.(.(.(.(.(.(.(.(.",
"(.(.(.(.(.(.(.(.(.(.(.(.8 y %.D.I.U.@.2 e (.(.(.(.(.(.(.(.(.(.(.",
"(.(.(.(.(.(.(.(.(.(.(.8 4 u %.C.,.,.N.J 2 r (.(.(.(.(.(.(.(.(.(.",
"(.(.(.(.(.(.(.(.(.(.(.8 t P Y -.Y P ..L # $ - (.(.(.(.(.(.(.(.(.",
"(.(.(.(.(.(.(.(.(.(.9 4 I #.,.S.-.O.%...- X % (.(.(.(.(.(.(.(.(.",
"(.(.(.(.(.(.(.(.(.(.(.r V.I.A.>.<.Z.D.N.6 X % (.(.(.(.(.(.(.(.(.",
"(.(.(.(.(.(.(.(.(.(.(.c G.A.>.W ~ 4.1.&.t * < (.(.(.(.(.(.(.(.(.",
"(.(.(.(.(.(.(.(.(.(.(.c B.C.B.:.*.&.;.-.Y A 0 (.(.(.(.(.(.(.(.(.",
"(.(.(.(.(.(.(.(.(.(.(.I A.2.:.*.~ ! =.<.*.Q 6 (.(.(.(.(.(.(.(.(.",
"(.(.(.(.(.(.(.(.(.(.(.@.B.<.C.3.1.;.) $.J 5 # (.(.(.(.(.(.(.(.(.",
"(.(.(.(.(.(.(.(.(.(.(.3 / N.,.L Y T G S +   (.(.(.(.(.(.(.(.(.(.",
"(.(.(.(.(.(.(.(.(.(.(.(.v %.S 1 1 C Z ,   . (.(.(.(.(.(.(.(.(.(.",
"(.(.(.(.(.(.(.(.(.(.(.(.o.2.C q C D D *   O (.(.(.(.(.(.(.(.(.(.",
"(.(.(.(.(.(.(.(.(.(.(.x.M.C.! F F H S o . # (.(.(.(.(.(.(.(.(.(.",
"(.(.(.(.(.(.(.(.(.(.l.l.g.h.+.T G R i O o o (.(.(.(.(.(.(.(.(.(.",
"(.(.(.(.(.(./.^.Q.J.g.i.w._ N E H R 0 @ : @ (.(.(.(.(.(.(.(.(.(.",
"(.(.(.(.T.K.v.c.z.z.u.i.6.h z $.( $.u = p s (.(.(.(.(.(.(.(.(.(.",
"(.(.(.(.a.r.y.y.l.g.q.d.t.j z U O.O.K = w (.(.(.(.(.(.(.(.(.(.(.",
"(.(.(.(.0.9.y.r.u.y.8.] | b.b.X.V M B k > } (.(.(.(.(.(.(.(.(.(.",
"(.(.(.(.0.7.y.8.9.p.8.g m F.E.R.R.R.E.m.l w j.H.(.(.(.(.(.(.(.(.",
"(.(.(.(.6.6.y._ 5.w.[ d ` Y.R.W.!.!.W.P. .a { f.k.(.(.(.(.(.(.(.",
"(.(.(.(.6.0.r.h 5.e.' p j L.W.W.W.!.~.R.n.f { q.s.(.(.(.(.(.(.(.",
"(.(.(.(.(.(.(.(.(.(.(.(.(.(.(.(.(.(.(.(.(.(.(.(.(.(.(.(.(.(.(.(.",
"(.(.(.(.(.(.(.(.(.(.(.(.(.(.(.(.(.(.(.(.(.(.(.(.(.(.(.(.(.(.(.(.",
"(.(.(.(.(.(.(.(.(.(.(.(.(.(.(.(.(.(.(.(.(.(.(.(.(.(.(.(.(.(.(.(.",
"(.(.(.(.(.(.(.(.(.(.(.(.(.(.(.(.(.(.(.(.(.(.(.(.(.(.(.(.(.(.(.(."
};
